<svg xmlns="http://www.w3.org/2000/svg" width="44" height="24" viewBox="0 0 44 24"><defs><clipPath id="joqna"><path fill="#fff" d="M0 12C0 5.373 5.373 0 12 0h20c6.627 0 12 5.373 12 12s-5.373 12-12 12H12C5.373 24 0 18.627 0 12z"/></clipPath></defs><g><g><path fill="none" stroke="#fff" stroke-miterlimit="50" stroke-width="2" d="M0 12C0 5.373 5.373 0 12 0h20c6.627 0 12 5.373 12 12v0c0 6.627-5.373 12-12 12H12C5.373 24 0 18.627 0 12z" clip-path="url(&quot;#joqna&quot;)"/></g><g><path fill="#fff" d="M17 12a8 8 0 0 1 8-8h6a8 8 0 1 1 0 16h-6a8 8 0 0 1-8-8z"/></g></g></svg>